                Churchill-The Hollywood Years 2004 DVDRip Xvid LKRG


RIPPER                           : fasamoo
Format                           : AVI
Format/Info                      : Audio Video Interleave
File size                        : 699 MiB
Duration                         : 1h 20mn
Overall bit rate                 : 1 210 Kbps
Writing application              : VirtualDubMod 1.5.4.1 (build 2178/release)
Writing library                  : VirtualDubMod build 2178/release
Language                         : English
Subtitles                        : None
Genre                            : Comedy | War

Video
ID                               : 0
Format                           : MPEG-4 Visual
Format profile                   : Advanced Simple@L5
Format settings, BVOP            : Yes
Format settings, QPel            : No
Format settings, GMC             : No warppoints
Format settings, Matrix          : Custom
Codec ID                         : XVID
Codec ID/Hint                    : XviD
Duration                         : 1h 20mn
Bit rate                         : 1 085 Kbps
Width                            : 640 pixels
Height                           : 352 pixels
Display aspect ratio             : 16:9
Frame rate                       : 29.970 fps
Color space                      : YUV
Chroma subsampling               : 4:2:0
Bit depth                        : 8 bits
Scan type                        : Progressive
Bits/(Pixel*Frame)               : 0.161
Stream size                      : 627 MiB (90%)
Writing library                  : XviD 1.2.1 (UTC 2008-12-04)

Audio
ID                               : 1
Format                           : MPEG Audio
Format version                   : Version 1
Format profile                   : Layer 3
Mode                             : Joint stereo
Mode extension                   : MS Stereo
Codec ID                         : 55
Codec ID/Hint                    : MP3
Duration                         : 1h 20mn
Bit rate mode                    : Variable
Bit rate                         : 111 Kbps
Nominal bit rate                 : 128 Kbps
Channel(s)                       : 2 channels
Sampling rate                    : 48.0 KHz
Stream size                      : 64.3 MiB (9%)
Alignment                        : Aligned on interleaves
Interleave, duration             : 24 ms (0.72 video frame)
Interleave, preload duration     : 507 ms
Writing library                  : LAME3.98r
Encoding settings                : -m j -V 4 -q 2 -lowpass 17 --abr 128


                                 PLOT

A group of American executives making a film about World War II decide that since their lead is rather unglamorous, they will draft in an American G.I. to play the part of Winston Churchill. Their take on the war depicts a handsome Churchill falling in love with Princess Elizabeth, who is herself involved in the war as an undercover agent. Together the glamorous couple uncover a secret plot within the royal palace itself and battle to save the world from the evil clutches of Hitler.

  







                                 IMBD
                     
                    http://www.imdb.com/title/tt0359078/
 
http://leetleech.org/images/65410491300709831107.png 
http://leetleech.org/images/75070007793308374521.png 
http://leetleech.org/images/82706743166714378881.png 
http://leetleech.org/images/84046739047454672232.png 
http://leetleech.org/images/92240706058667930465.png 
http://leetleech.org/images/80634721157103508449.png 
http://leetleech.org/images/73187806785029351120.png           